<svg xmlns="http://www.w3.org/2000/svg" xmlns:xlink="http://www.w3.org/1999/xlink" width="100" zoomAndPan="magnify" viewBox="0 0 75 37.5" height="50" preserveAspectRatio="xMidYMid meet" version="1.0"><defs><g/><clipPath id="bd6376222e"><path d="M 17.421875 6.773438 L 26.222656 6.773438 L 26.222656 14.105469 L 17.421875 14.105469 Z M 10.089844 14.105469 L 33.550781 14.105469 L 33.550781 22.902344 L 10.089844 22.902344 Z M 17.421875 22.902344 L 26.222656 22.902344 L 26.222656 30.234375 L 17.421875 30.234375 Z M 17.421875 22.902344 " clip-rule="nonzero"/></clipPath></defs><g clip-path="url(#bd6376222e)"><path fill="#ff5757" d="M 10.089844 6.773438 L 33.550781 6.773438 L 33.550781 30.234375 L 10.089844 30.234375 Z M 10.089844 6.773438 " fill-opacity="1" fill-rule="nonzero"/></g><g fill="#002f6d" fill-opacity="1"><g transform="translate(16.886466, 21.631489)"><g><path d="M 4.78125 -5.953125 L 4.78125 -4.96875 L 3.0625 -4.96875 L 3.0625 0 L 1.875 0 L 1.875 -4.96875 L 0.15625 -4.96875 L 0.15625 -5.953125 Z M 4.78125 -5.953125 "/></g></g></g><g fill="#002f6d" fill-opacity="1"><g transform="translate(21.430604, 21.631489)"><g><path d="M 1.75 0.078125 C 1.457031 0.078125 1.207031 0.0234375 1 -0.078125 C 0.789062 -0.179688 0.628906 -0.332031 0.515625 -0.53125 C 0.398438 -0.738281 0.34375 -0.988281 0.34375 -1.28125 C 0.34375 -1.539062 0.398438 -1.757812 0.515625 -1.9375 C 0.628906 -2.125 0.804688 -2.273438 1.046875 -2.390625 C 1.285156 -2.503906 1.597656 -2.59375 1.984375 -2.65625 C 2.253906 -2.695312 2.457031 -2.742188 2.59375 -2.796875 C 2.726562 -2.847656 2.820312 -2.90625 2.875 -2.96875 C 2.925781 -3.039062 2.953125 -3.128906 2.953125 -3.234375 C 2.953125 -3.367188 2.898438 -3.472656 2.796875 -3.546875 C 2.691406 -3.628906 2.523438 -3.671875 2.296875 -3.671875 C 2.046875 -3.671875 1.804688 -3.613281 1.578125 -3.5 C 1.359375 -3.394531 1.164062 -3.25 1 -3.0625 L 0.921875 -3.0625 L 0.4375 -3.78125 C 0.664062 -4.03125 0.941406 -4.222656 1.265625 -4.359375 C 1.597656 -4.503906 1.960938 -4.578125 2.359375 -4.578125 C 2.953125 -4.578125 3.378906 -4.453125 3.640625 -4.203125 C 3.910156 -3.953125 4.046875 -3.59375 4.046875 -3.125 L 4.046875 -1.171875 C 4.046875 -0.972656 4.132812 -0.875 4.3125 -0.875 C 4.375 -0.875 4.441406 -0.882812 4.515625 -0.90625 L 4.5625 -0.890625 L 4.65625 -0.109375 C 4.59375 -0.0664062 4.503906 -0.03125 4.390625 0 C 4.273438 0.0195312 4.148438 0.03125 4.015625 0.03125 C 3.753906 0.03125 3.546875 -0.0195312 3.390625 -0.125 C 3.242188 -0.226562 3.132812 -0.390625 3.0625 -0.609375 L 2.984375 -0.609375 C 2.765625 -0.148438 2.351562 0.078125 1.75 0.078125 Z M 2.109375 -0.75 C 2.367188 -0.75 2.578125 -0.835938 2.734375 -1.015625 C 2.890625 -1.191406 2.96875 -1.4375 2.96875 -1.75 L 2.96875 -2.203125 L 2.890625 -2.21875 C 2.828125 -2.164062 2.738281 -2.117188 2.625 -2.078125 C 2.507812 -2.046875 2.351562 -2.015625 2.15625 -1.984375 C 1.90625 -1.941406 1.726562 -1.867188 1.625 -1.765625 C 1.519531 -1.671875 1.46875 -1.53125 1.46875 -1.34375 C 1.46875 -1.15625 1.523438 -1.007812 1.640625 -0.90625 C 1.753906 -0.800781 1.910156 -0.75 2.109375 -0.75 Z M 1.6875 -4.9375 L 0.96875 -4.9375 L 0.96875 -5.03125 L 1.875 -6.296875 L 2.84375 -6.296875 L 3.734375 -5.03125 L 3.734375 -4.9375 L 3.015625 -4.9375 L 2.359375 -5.515625 Z M 1.6875 -4.9375 "/></g></g></g><g fill="#002f6d" fill-opacity="1"><g transform="translate(25.775178, 21.631489)"><g><path d="M 0.640625 0 L 0.640625 -4.5 L 1.734375 -4.5 L 1.734375 -3.890625 L 1.8125 -3.875 C 1.957031 -4.113281 2.128906 -4.289062 2.328125 -4.40625 C 2.523438 -4.519531 2.78125 -4.578125 3.09375 -4.578125 C 3.425781 -4.578125 3.695312 -4.507812 3.90625 -4.375 C 4.113281 -4.238281 4.265625 -4.039062 4.359375 -3.78125 L 4.4375 -3.78125 C 4.582031 -4.050781 4.765625 -4.25 4.984375 -4.375 C 5.203125 -4.507812 5.472656 -4.578125 5.796875 -4.578125 C 6.722656 -4.578125 7.1875 -4.054688 7.1875 -3.015625 L 7.1875 0 L 6.0625 0 L 6.0625 -2.875 C 6.0625 -3.144531 6.007812 -3.335938 5.90625 -3.453125 C 5.800781 -3.566406 5.640625 -3.625 5.421875 -3.625 C 4.796875 -3.625 4.484375 -3.210938 4.484375 -2.390625 L 4.484375 0 L 3.359375 0 L 3.359375 -2.875 C 3.359375 -3.144531 3.304688 -3.335938 3.203125 -3.453125 C 3.097656 -3.566406 2.929688 -3.625 2.703125 -3.625 C 2.410156 -3.625 2.179688 -3.523438 2.015625 -3.328125 C 1.859375 -3.140625 1.78125 -2.832031 1.78125 -2.40625 L 1.78125 0 Z M 0.640625 0 "/></g></g></g><g fill="#002f6d" fill-opacity="1"><g transform="translate(33.153971, 21.631489)"><g/></g></g><g fill="#002f6d" fill-opacity="1"><g transform="translate(34.729056, 21.631489)"><g><path d="M 5.71875 0 L 4.484375 0 L 4.03125 -1.375 L 1.75 -1.375 L 1.296875 0 L 0.09375 0 L 2.140625 -5.953125 L 3.65625 -5.953125 Z M 2.828125 -4.71875 L 2.0625 -2.359375 L 3.703125 -2.359375 L 2.9375 -4.71875 Z M 2.828125 -4.71875 "/></g></g></g><g fill="#002f6d" fill-opacity="1"><g transform="translate(40.140697, 21.631489)"><g><path d="M 0.640625 0 L 0.640625 -4.5 L 1.734375 -4.5 L 1.734375 -3.828125 L 1.8125 -3.8125 C 2.09375 -4.320312 2.546875 -4.578125 3.171875 -4.578125 C 3.691406 -4.578125 4.070312 -4.4375 4.3125 -4.15625 C 4.5625 -3.875 4.6875 -3.460938 4.6875 -2.921875 L 4.6875 0 L 3.5625 0 L 3.5625 -2.78125 C 3.5625 -3.082031 3.5 -3.296875 3.375 -3.421875 C 3.257812 -3.554688 3.066406 -3.625 2.796875 -3.625 C 2.472656 -3.625 2.222656 -3.519531 2.046875 -3.3125 C 1.867188 -3.101562 1.78125 -2.773438 1.78125 -2.328125 L 1.78125 0 Z M 0.640625 0 "/></g></g></g><g fill="#002f6d" fill-opacity="1"><g transform="translate(38.944975, 25.122358)"><g/></g></g><g fill="#002f6d" fill-opacity="1"><g transform="translate(40.012962, 25.122358)"><g><path d="M 0.421875 -0.546875 L 0.421875 0 L 0.125 0 L 0.125 -1.46875 L 0.609375 -1.46875 C 0.773438 -1.46875 0.898438 -1.429688 0.984375 -1.359375 C 1.078125 -1.285156 1.125 -1.175781 1.125 -1.03125 C 1.125 -0.851562 1.078125 -0.726562 0.984375 -0.65625 C 0.898438 -0.582031 0.773438 -0.546875 0.609375 -0.546875 Z M 0.421875 -1.21875 L 0.421875 -0.796875 L 0.609375 -0.796875 C 0.679688 -0.796875 0.734375 -0.8125 0.765625 -0.84375 C 0.804688 -0.875 0.828125 -0.9375 0.828125 -1.03125 C 0.828125 -1.070312 0.820312 -1.101562 0.8125 -1.125 C 0.800781 -1.15625 0.785156 -1.175781 0.765625 -1.1875 C 0.753906 -1.195312 0.734375 -1.203125 0.703125 -1.203125 C 0.671875 -1.210938 0.640625 -1.21875 0.609375 -1.21875 Z M 0.421875 -1.21875 "/></g></g></g><g fill="#002f6d" fill-opacity="1"><g transform="translate(41.656476, 25.122358)"><g><path d="M 0.421875 -0.84375 L 1 -0.84375 L 1 -1.46875 L 1.296875 -1.46875 L 1.296875 0 L 1 0 L 1 -0.59375 L 0.421875 -0.59375 L 0.421875 0 L 0.125 0 L 0.125 -1.46875 L 0.421875 -1.46875 Z M 0.421875 -0.84375 "/></g></g></g><g fill="#002f6d" fill-opacity="1"><g transform="translate(43.487481, 25.122358)"><g><path d="M 1 -0.3125 L 0.46875 -0.3125 L 0.359375 0 L 0.03125 0 L 0.578125 -1.46875 L 0.890625 -1.46875 L 1.4375 0 L 1.109375 0 Z M 0.5625 -0.5625 L 0.90625 -0.5625 L 0.734375 -1.046875 Z M 0.5625 -0.5625 "/></g></g></g><g fill="#002f6d" fill-opacity="1"><g transform="translate(45.366939, 25.122358)"><g><path d="M 1.125 -1.0625 C 1.125 -0.9375 1.097656 -0.835938 1.046875 -0.765625 C 1.003906 -0.703125 0.929688 -0.65625 0.828125 -0.625 L 1.1875 0 L 0.859375 0 L 0.5 -0.59375 L 0.421875 -0.59375 L 0.421875 0 L 0.125 0 L 0.125 -1.46875 L 0.625 -1.46875 C 0.789062 -1.46875 0.914062 -1.429688 1 -1.359375 C 1.082031 -1.285156 1.125 -1.1875 1.125 -1.0625 Z M 0.421875 -1.21875 L 0.421875 -0.859375 L 0.625 -0.859375 C 0.695312 -0.859375 0.75 -0.867188 0.78125 -0.890625 C 0.8125 -0.921875 0.828125 -0.972656 0.828125 -1.046875 C 0.828125 -1.097656 0.8125 -1.140625 0.78125 -1.171875 C 0.75 -1.203125 0.695312 -1.21875 0.625 -1.21875 Z M 0.421875 -1.21875 "/></g></g></g><g fill="#002f6d" fill-opacity="1"><g transform="translate(47.008346, 25.122358)"><g><path d="M 0.484375 -1.46875 L 0.859375 -0.5 L 1.234375 -1.46875 L 1.53125 -1.46875 L 1.609375 0 L 1.3125 0 L 1.28125 -0.78125 L 0.984375 0 L 0.734375 0 L 0.4375 -0.78125 L 0.40625 0 L 0.109375 0 L 0.1875 -1.46875 Z M 0.484375 -1.46875 "/></g></g></g><g fill="#002f6d" fill-opacity="1"><g transform="translate(49.138493, 25.122358)"><g><path d="M 1 -0.3125 L 0.46875 -0.3125 L 0.359375 0 L 0.03125 0 L 0.578125 -1.46875 L 0.890625 -1.46875 L 1.4375 0 L 1.109375 0 Z M 0.5625 -0.5625 L 0.90625 -0.5625 L 0.734375 -1.046875 Z M 0.5625 -0.5625 "/></g></g></g><g fill="#002f6d" fill-opacity="1"><g transform="translate(51.017951, 25.122358)"><g><path d="M 1.375 -0.4375 C 1.34375 -0.351562 1.304688 -0.28125 1.265625 -0.21875 C 1.234375 -0.164062 1.1875 -0.117188 1.125 -0.078125 C 1.070312 -0.046875 1.015625 -0.0195312 0.953125 0 C 0.890625 0.0078125 0.820312 0.015625 0.75 0.015625 C 0.65625 0.015625 0.566406 0.00390625 0.484375 -0.015625 C 0.410156 -0.0351562 0.34375 -0.078125 0.28125 -0.140625 C 0.226562 -0.203125 0.179688 -0.28125 0.140625 -0.375 C 0.109375 -0.46875 0.09375 -0.585938 0.09375 -0.734375 C 0.09375 -0.878906 0.109375 -1 0.140625 -1.09375 C 0.179688 -1.195312 0.226562 -1.273438 0.28125 -1.328125 C 0.34375 -1.390625 0.410156 -1.429688 0.484375 -1.453125 C 0.566406 -1.484375 0.65625 -1.5 0.75 -1.5 C 0.8125 -1.5 0.875 -1.488281 0.9375 -1.46875 C 1.007812 -1.457031 1.070312 -1.429688 1.125 -1.390625 C 1.175781 -1.359375 1.222656 -1.316406 1.265625 -1.265625 C 1.304688 -1.210938 1.335938 -1.148438 1.359375 -1.078125 L 1.078125 -0.984375 C 1.066406 -1.035156 1.046875 -1.078125 1.015625 -1.109375 C 0.992188 -1.140625 0.96875 -1.164062 0.9375 -1.1875 C 0.914062 -1.207031 0.882812 -1.222656 0.84375 -1.234375 C 0.8125 -1.242188 0.78125 -1.25 0.75 -1.25 C 0.695312 -1.25 0.648438 -1.238281 0.609375 -1.21875 C 0.566406 -1.207031 0.53125 -1.179688 0.5 -1.140625 C 0.46875 -1.097656 0.441406 -1.046875 0.421875 -0.984375 C 0.398438 -0.921875 0.390625 -0.835938 0.390625 -0.734375 C 0.390625 -0.640625 0.398438 -0.554688 0.421875 -0.484375 C 0.441406 -0.421875 0.46875 -0.367188 0.5 -0.328125 C 0.53125 -0.296875 0.566406 -0.269531 0.609375 -0.25 C 0.648438 -0.238281 0.695312 -0.234375 0.75 -0.234375 C 0.78125 -0.234375 0.8125 -0.238281 0.84375 -0.25 C 0.882812 -0.257812 0.921875 -0.273438 0.953125 -0.296875 C 0.984375 -0.316406 1.007812 -0.34375 1.03125 -0.375 C 1.050781 -0.414062 1.066406 -0.460938 1.078125 -0.515625 Z M 1.375 -0.4375 "/></g></g></g><g fill="#002f6d" fill-opacity="1"><g transform="translate(52.870023, 25.122358)"><g><path d="M 0.375 -1.46875 L 0.625 -0.984375 L 0.890625 -1.46875 L 1.21875 -1.46875 L 0.78125 -0.65625 L 0.78125 0 L 0.484375 0 L 0.484375 -0.65625 L 0.03125 -1.46875 Z M 0.375 -1.46875 "/></g></g></g></svg>